<svg id="Guide" height="512" viewBox="0 0 512 512" width="512" xmlns="http://www.w3.org/2000/svg"><path d="m256 10a246 246 0 0 0 -173.948 419.948 246 246 0 1 0 347.9-347.9 244.393 244.393 0 0 0 -173.952-72.048zm165.463 411.463a234.051 234.051 0 0 1 -364.873-288.041c9.45 8.758 28.316 33.856 8.477 83.407-12.688 31.691-12.015 60.928 2 86.9 9.319 17.269 24.507 32.856 45.14 46.327 3.546 2.315 6.941 4.481 10.2 6.558 22.153 14.126 36.788 23.459 49.272 48.067 1.351 2.664 2.705 5.543 4.139 8.591 11.17 23.748 26.773 56.926 75.276 56.926 13.921 0 30.56-2.735 50.577-9.212 26.589-8.6 38.2-28.325 45.88-41.374 2.354-4 4.388-7.456 6.136-9.328 30.007-32.138 44.789-26.29 60.44-20.1l1.14.449 22.713 12.5a238.577 238.577 0 0 1 -16.517 18.33zm23.918-27.958-24.666-13.57-2.175-.911c-16.95-6.7-38.041-15.047-73.626 23.068-2.649 2.837-4.993 6.82-7.707 11.43-7.165 12.173-16.979 28.843-39.233 36.044-79.694 25.787-97.217-11.468-111.3-41.4-1.473-3.132-2.865-6.089-4.3-8.913-13.967-27.534-30.558-38.113-53.521-52.756-3.223-2.055-6.583-4.2-10.091-6.488-18.939-12.366-32.781-26.49-41.139-41.978-12.244-22.689-12.722-48.508-1.419-76.738 14.963-37.373 9.527-62.888 2.333-77.712a64.091 64.091 0 0 0 -15.337-20.281 236.6 236.6 0 0 1 27.337-32.763 234.022 234.022 0 0 1 354.844 302.968z"/><path d="m256 149.673a106.328 106.328 0 1 0 106.327 106.327 106.447 106.447 0 0 0 -106.327-106.327zm0 200.655a94.328 94.328 0 1 1 94.327-94.328 94.435 94.435 0 0 1 -94.327 94.328z"/><path d="m125.315 82.637-18.108 18.625a6 6 0 0 0 8.6 8.366l18.112-18.628a6 6 0 1 0 -8.6-8.366z"/><path d="m189.514 123.465h23.686a6 6 0 0 0 0-12h-23.686a6 6 0 0 0 0 12z"/><path d="m220.16 60.782h30.921a6 6 0 1 0 0-12h-30.921a6 6 0 0 0 0 12z"/><path d="m112.106 214.988a6 6 0 0 0 7.776-3.4l6.268-16a6 6 0 0 0 -11.174-4.377l-6.268 16a6 6 0 0 0 3.398 7.777z"/><path d="m325.331 105.216a6 6 0 0 0 8.484-8.484l-16.5-16.5a6 6 0 0 0 -8.484 8.484z"/><path d="m408.153 222.834a6 6 0 0 0 4-10.47l-16.6-14.866a6 6 0 1 0 -8 8.939l16.6 14.866a5.974 5.974 0 0 0 4 1.531z"/><path d="m408.835 128.4a6 6 0 0 0 -8.388-1.282l-22.174 16.294a6 6 0 0 0 7.106 9.67l22.173-16.294a6 6 0 0 0 1.283-8.388z"/><path d="m431.983 280.37a6.022 6.022 0 0 0 1.1-.1l30.13-5.595a6 6 0 1 0 -2.192-11.8l-30.13 5.594a6 6 0 0 0 1.089 11.9z"/><path d="m419.446 320-20.968 7.555a6 6 0 1 0 4.069 11.289l20.967-7.555a6 6 0 1 0 -4.068-11.289z"/><path d="m305.356 397.04h-20.844a6 6 0 0 0 0 12h20.844a6 6 0 0 0 0-12z"/><path d="m207.365 371.549a6 6 0 1 0 -8.486 8.485l13.626 13.627a6 6 0 1 0 8.486-8.485z"/><path d="m130.247 288.772-19.83-7.1a6 6 0 1 0 -4.045 11.3l19.83 7.1a6 6 0 0 0 4.045-11.3z"/></svg>